<svg width="150" height="150" viewBox="0 0 150 150" fill="none" xmlns="http://www.w3.org/2000/svg">
<path d="M75 0C33.583 0 0 33.5779 0 75C0 116.422 33.5797 150 75 150C116.424 150 150 116.422 150 75C150 33.5779 116.424 0 75 0ZM75 22.4259C88.7046 22.4259 99.81 33.535 99.81 47.2337C99.81 60.9356 88.7046 72.0415 75 72.0415C61.3019 72.0415 50.1966 60.9356 50.1966 47.2337C50.1966 33.535 61.3019 22.4259 75 22.4259ZM74.9835 130.391C61.3151 130.391 48.7964 125.413 39.1406 117.173C36.7884 115.167 35.4311 112.225 35.4311 109.138C35.4311 95.2449 46.6749 84.1259 60.5706 84.1259H89.436C103.335 84.1259 114.536 95.2449 114.536 109.138C114.536 112.228 113.185 115.164 110.83 117.17C101.177 125.413 88.6552 130.391 74.9835 130.391Z" fill="#CCDFEF"/>
<path fill-rule="evenodd" clip-rule="evenodd" d="M99.7788 47.3078C99.7788 33.6092 88.6734 22.5 74.9688 22.5C61.2707 22.5 50.1653 33.6092 50.1653 47.3078C50.1653 61.0098 61.2707 72.1156 74.9688 72.1156C88.6734 72.1156 99.7788 61.0098 99.7788 47.3078ZM39.1094 117.247C48.7652 125.487 61.2839 130.465 74.9523 130.465C88.624 130.465 101.146 125.487 110.799 117.244C113.154 115.238 114.505 112.302 114.505 109.212C114.505 95.319 103.304 84.2 89.4048 84.2H60.5394C46.6436 84.2 35.3999 95.319 35.3999 109.212C35.3999 112.299 36.7572 115.241 39.1094 117.247Z" fill="white"/>
</svg>
